<svg version="1.1" id="Uploaded to svgrepo.com" xmlns="http://www.w3.org/2000/svg" xmlns:xlink="http://www.w3.org/1999/xlink" x="0px" y="0px"
	 width="32px" height="32px" viewBox="0 0 32 32" style="enable-background:new 0 0 32 32;" xml:space="preserve">
<style type="text/css">
	.sharpcorners_een{fill:#111918;}
	.st0{fill:#111918;}
</style>
<path class="sharpcorners_een" d="M3,29h12V4H3V29z M13,27h-2v-2h2V27z M13,21h-2v-2h2V21z M11,12h2v2h-2V12z M8,9h2v2H8V9z M5,6h2
	v2H5V6z M5,16h8v1H5V16z M5,19h2v2H5V19z M5,25h2v2H5V25z M17,4v25h12V4H17z M22,9h2v2h-2V9z M19,6h2v2h-2V6z M21,27h-2v-2h2V27z
	 M21,21h-2v-2h2V21z M27,27h-2v-2h2V27z M27,21h-2v-2h2V21z M27,17h-8v-1h8V17z M27,14h-2v-2h2V14z"/>
</svg>