<svg xmlns="http://www.w3.org/2000/svg" width="20" height="20.004" viewBox="0 0 20 20.004">
  <path id="Tracé_173" data-name="Tracé 173" d="M12,59H6a1,1,0,0,0,0,2h6a1,1,0,0,0,0-2M8,53h2a1,1,0,0,0,0-2H8a1,1,0,0,0,0,2m12,2H17V46a1,1,0,0,0-1.5-.87l-3,1.72-3-1.72a1,1,0,0,0-1,0l-3,1.72-3-1.72A1,1,0,0,0,1,46V62a3,3,0,0,0,3,3H18a3,3,0,0,0,3-3V56a1,1,0,0,0-1-1M4,63a1,1,0,0,1-1-1V47.73l2,1.14a1.078,1.078,0,0,0,1,0l3-1.72,3,1.72a1.078,1.078,0,0,0,1,0l2-1.14V62a3.02,3.02,0,0,0,.18,1Zm15-1a1,1,0,0,1-2,0V57h2Zm-7-7H6a1,1,0,0,0,0,2h6a1,1,0,0,0,0-2" transform="translate(-1 -44.996)"/>
</svg>
