<svg xmlns="http://www.w3.org/2000/svg" width="20" height="20" viewBox="0 0 20 20">
  <path id="Tracé_998" data-name="Tracé 998" d="M2187.576,71.329c-.04.048-.08.1-.12.15a.633.633,0,0,0-.09.18.579.579,0,0,0-.06.18v.2a.832.832,0,0,0,.08.38.88.88,0,0,0,.21.33.912.912,0,0,0,.33.21.943.943,0,0,0,.76,0,.914.914,0,0,0,.33-.21.88.88,0,0,0,.21-.33,1.221,1.221,0,0,0,.06-.38,1,1,0,0,0-.07-.384,1.057,1.057,0,0,0-.22-.326.915.915,0,0,0-.33-.219.976.976,0,0,0-.76,0,.913.913,0,0,0-.33.219m.71-13.29a9.978,9.978,0,1,0,3.83.761,10.027,10.027,0,0,0-3.83-.761m0,18a7.994,7.994,0,1,1,5.66-2.343,7.978,7.978,0,0,1-5.66,2.343m0-13a3,3,0,0,0-1.5.4,2.959,2.959,0,0,0-1.1,1.1,1,1,0,0,0-.14.374,1.075,1.075,0,0,0,.01.4.971.971,0,0,0,.17.362,1.068,1.068,0,0,0,.3.266,1.03,1.03,0,0,0,.38.127.992.992,0,0,0,.4-.032,1.084,1.084,0,0,0,.36-.186,1.021,1.021,0,0,0,.25-.311,1.007,1.007,0,0,1,.87-.5,1,1,0,0,1,.71.293,1.007,1.007,0,0,1,0,1.414,1,1,0,0,1-.71.293,1,1,0,0,0-.71.293,1.03,1.03,0,0,0-.29.707v1a1.03,1.03,0,0,0,.29.707,1.007,1.007,0,0,0,1.42,0,1.029,1.029,0,0,0,.29-.707v-.18a3,3,0,0,0-1-5.82" transform="translate(-2178.286 -58.039)"/>
</svg>
