<svg xmlns="http://www.w3.org/2000/svg" width="20.026" height="20.225" viewBox="0 0 20.026 20.225">
  <path id="Tracé_522" data-name="Tracé 522" d="M416.17,55.06A12.864,12.864,0,0,0,407,56.92a13.071,13.071,0,0,0-9.17-1.81,1,1,0,0,0-.83,1v12a1.006,1.006,0,0,0,.35.775,1,1,0,0,0,.82.225,10.9,10.9,0,0,1,8.25,1.91l.12.07h.11a.91.91,0,0,0,.7,0h.11l.12-.07A10.9,10.9,0,0,1,415.83,69,1,1,0,0,0,417,68V56a1,1,0,0,0-.83-.94M406,68.35a12.875,12.875,0,0,0-6-1.48h-1v-10a8.78,8.78,0,0,1,1,0,10.867,10.867,0,0,1,6,1.8Zm9-1.44h-1a12.875,12.875,0,0,0-6,1.48V58.67a10.867,10.867,0,0,1,6-1.8,8.78,8.78,0,0,1,1,0Zm1.17,4.15A12.864,12.864,0,0,0,407,72.92a12.864,12.864,0,0,0-9.17-1.86.985.985,0,1,0,.34,1.94,10.9,10.9,0,0,1,8.25,1.91,1,1,0,0,0,1.16,0A10.9,10.9,0,0,1,415.83,73a1,1,0,0,0,1.17-.79,1.009,1.009,0,0,0-.013-.391,1,1,0,0,0-.163-.357,1,1,0,0,0-.654-.4" transform="translate(-396.987 -54.87)"/>
</svg>
