<svg xmlns="http://www.w3.org/2000/svg" width="22" height="19.995" viewBox="0 0 22 19.995">
  <path id="Tracé_193" data-name="Tracé 193" d="M9.46,137l.54-.59V140a1,1,0,0,0,2,0v-3.59l.54.55a1.005,1.005,0,0,0,.721.337,1.018,1.018,0,0,0,.958-.622,1,1,0,0,0-.219-1.1l-2.29-2.29a1.034,1.034,0,0,0-1.42,0L8,135.54A1.032,1.032,0,0,0,9.46,137M11,143a3,3,0,1,0,2.121.879A3,3,0,0,0,11,143m0,4a1,1,0,1,1,.707-.293A1,1,0,0,1,11,147m-7-1a1,1,0,1,0,.293-.707A1,1,0,0,0,4,146m14,0a1,1,0,1,0-.293.707A1,1,0,0,0,18,146m1-7H15a1,1,0,0,0,0,2h4a1,1,0,0,1,1,1v8a1,1,0,0,1-1,1H3a1,1,0,0,1-1-1v-8a1,1,0,0,1,1-1H7a1,1,0,0,0,0-2H3a3,3,0,0,0-3,3v8a3,3,0,0,0,3,3H19a3,3,0,0,0,3-3v-8a3,3,0,0,0-3-3" transform="translate(0 -133.005)"/>
</svg>
