<svg xmlns="http://www.w3.org/2000/svg" width="20" height="20" viewBox="0 0 20 20">
  <path id="Tracé_235" data-name="Tracé 235" d="M105.028,50.01h-1v-3a3,3,0,0,0-3-3h-10a3,3,0,0,0-3,3v12a1,1,0,0,0,.62.92.846.846,0,0,0,.38.08,1.009,1.009,0,0,0,.384-.074.993.993,0,0,0,.326-.216l2.81-2.82h1.48v1.44a3,3,0,0,0,3,3h6.92l2.37,2.38a.993.993,0,0,0,.326.216,1.009,1.009,0,0,0,.384.074.846.846,0,0,0,.38-.08,1,1,0,0,0,.62-.92v-10a3,3,0,0,0-3-3m-11,3V54.9h-1.89a1,1,0,0,0-.71.29l-1.4,1.41V47.01a1,1,0,0,1,1-1h10a1,1,0,0,1,1,1v3h-5a3,3,0,0,0-3,3m12,7.59-1-1a1,1,0,0,0-.71-.3h-7.29a1,1,0,0,1-1-1V53.01a1,1,0,0,1,1-1h8a1,1,0,0,1,1,1Z" transform="translate(-88.028 -44.01)"/>
</svg>
